<svg xmlns="http://www.w3.org/2000/svg" xmlns:xlink="http://www.w3.org/1999/xlink" width="1920" zoomAndPan="magnify" viewBox="0 0 1440 809.999993" height="1080" preserveAspectRatio="xMidYMid meet" version="1.2"><defs><clipPath id="9c0723c8bb"><path d="M 566.042969 583.136719 L 1217.429688 583.136719 L 1217.429688 625.996094 L 566.042969 625.996094 Z M 566.042969 583.136719 "/></clipPath><clipPath id="ab773859e3"><path d="M 388.664062 264.6875 L 1055.847656 264.6875 L 1055.847656 507.6875 L 388.664062 507.6875 Z M 388.664062 264.6875 "/></clipPath><clipPath id="086a3babf5"><path d="M 223.957031 440.023438 L 480.496094 440.023438 L 480.496094 648 L 223.957031 648 Z M 223.957031 440.023438 "/></clipPath><clipPath id="e0f1976028"><path d="M 189 434 L 459 434 L 459 648 L 189 648 Z M 189 434 "/></clipPath><clipPath id="9d2e6b4341"><path d="M 222.191406 434.867188 L 458.515625 480.773438 L 426.035156 648 L 189.707031 602.097656 Z M 222.191406 434.867188 "/></clipPath><clipPath id="224f1edd16"><path d="M 324.113281 176.757812 L 458.519531 176.757812 L 458.519531 384.734375 L 324.113281 384.734375 Z M 324.113281 176.757812 "/></clipPath><clipPath id="76a54854cc"><path d="M 272 176 L 459 176 L 459 414 L 272 414 Z M 272 176 "/></clipPath><clipPath id="a840fd470b"><path d="M 329.171875 176.757812 L 458.515625 213.289062 L 401.988281 413.4375 L 272.644531 376.902344 Z M 329.171875 176.757812 "/></clipPath><clipPath id="0babaad0ad"><path d="M 480.613281 486.574219 L 1215.527344 486.574219 L 1215.527344 584.320312 L 480.613281 584.320312 Z M 480.613281 486.574219 "/></clipPath><clipPath id="69eb33b1b5"><path d="M 87 41 L 600 41 L 600 759 L 87 759 Z M 87 41 "/></clipPath><clipPath id="530a2332e5"><path d="M 230.953125 -20.902344 L 773.707031 144.925781 L 542.648438 901.160156 L -0.101562 735.332031 Z M 230.953125 -20.902344 "/></clipPath><clipPath id="92dd9838cc"><path d="M -235.164062 -263.054688 L 1256.800781 192.792969 L 573.214844 2430.136719 L -918.75 1974.292969 Z M -235.164062 -263.054688 "/></clipPath><clipPath id="f5e390f14b"><path d="M 996.761719 263.648438 L 1108.046875 263.648438 L 1108.046875 486.574219 L 996.761719 486.574219 Z M 996.761719 263.648438 "/></clipPath><clipPath id="3e2489d8f1"><path d="M 877.875 263.648438 L 996.761719 263.648438 L 996.761719 486.574219 L 877.875 486.574219 Z M 877.875 263.648438 "/></clipPath><clipPath id="07f3cb86a6"><path d="M 761.476562 263.648438 L 880.363281 263.648438 L 880.363281 486.574219 L 761.476562 486.574219 Z M 761.476562 263.648438 "/></clipPath><clipPath id="62b666d18d"><path d="M 1108.046875 263.648438 L 1215.527344 263.648438 L 1215.527344 486.574219 L 1108.046875 486.574219 Z M 1108.046875 263.648438 "/></clipPath></defs><g id="7e46dcd27d"><g clip-rule="nonzero" clip-path="url(#9c0723c8bb)"><path style=" stroke:none;fill-rule:nonzero;fill:#ffffff;fill-opacity:1;" d="M 566.042969 583.136719 L 1217.46875 583.136719 L 1217.46875 625.996094 L 566.042969 625.996094 Z M 566.042969 583.136719 "/></g><g clip-rule="nonzero" clip-path="url(#ab773859e3)"><path style=" stroke:none;fill-rule:nonzero;fill:#ffffff;fill-opacity:1;" d="M 388.664062 264.6875 L 1055.964844 264.6875 L 1055.964844 507.6875 L 388.664062 507.6875 Z M 388.664062 264.6875 "/></g><g clip-rule="nonzero" clip-path="url(#086a3babf5)"><path style=" stroke:none;fill-rule:nonzero;fill:#ffffff;fill-opacity:1;" d="M 223.957031 440.023438 L 480.679688 440.023438 L 480.679688 648 L 223.957031 648 Z M 223.957031 440.023438 "/></g><g clip-rule="nonzero" clip-path="url(#e0f1976028)"><g clip-rule="nonzero" clip-path="url(#9d2e6b4341)"><path style=" stroke:none;fill-rule:nonzero;fill:#ffffff;fill-opacity:1;" d="M 222.191406 434.867188 L 458.660156 480.800781 L 426.179688 648.027344 L 189.707031 602.097656 Z M 222.191406 434.867188 "/></g></g><g clip-rule="nonzero" clip-path="url(#224f1edd16)"><path style=" stroke:none;fill-rule:nonzero;fill:#ffffff;fill-opacity:1;" d="M 324.113281 176.757812 L 458.519531 176.757812 L 458.519531 384.664062 L 324.113281 384.664062 Z M 324.113281 176.757812 "/></g><g clip-rule="nonzero" clip-path="url(#76a54854cc)"><g clip-rule="nonzero" clip-path="url(#a840fd470b)"><path style=" stroke:none;fill-rule:nonzero;fill:#ffffff;fill-opacity:1;" d="M 329.171875 176.757812 L 458.515625 213.289062 L 402.007812 413.367188 L 272.664062 376.835938 Z M 329.171875 176.757812 "/></g></g><g clip-rule="nonzero" clip-path="url(#0babaad0ad)"><path style=" stroke:none;fill-rule:nonzero;fill:#ff3131;fill-opacity:1;" d="M 480.613281 486.574219 L 1215.636719 486.574219 L 1215.636719 584.320312 L 480.613281 584.320312 Z M 480.613281 486.574219 "/></g><g clip-rule="nonzero" clip-path="url(#69eb33b1b5)"><g clip-rule="nonzero" clip-path="url(#530a2332e5)"><g clip-rule="nonzero" clip-path="url(#92dd9838cc)"><path style=" stroke:none;fill-rule:evenodd;fill:#0f0e0d;fill-opacity:1;" d="M 432.117188 44.515625 C 408.941406 41.199219 396.949219 40.671875 383.699219 42.394531 C 370.21875 44.144531 366.941406 45.625 363.015625 51.734375 C 359.066406 57.882812 341.441406 103.46875 325.242188 149.445312 C 318.277344 169.214844 306.828125 200.832031 299.800781 219.707031 C 242.148438 374.558594 222.847656 428.113281 198.464844 500.894531 C 183.089844 546.792969 178.539062 559.03125 176.347656 560.382812 C 173.390625 562.210938 156.417969 563.699219 144.328125 563.195312 C 140.261719 563.027344 132.75 564.164062 127.628906 565.722656 C 122.507812 567.28125 114.511719 569.289062 109.859375 570.179688 C 99.535156 572.15625 95.722656 575.898438 90.917969 588.792969 C 85.570312 603.136719 86.757812 608.847656 98.230469 623.96875 C 103.324219 630.683594 110.457031 638.539062 114.082031 641.421875 C 122.507812 648.125 135.425781 660.527344 144.234375 670.375 C 152.726562 679.863281 162.242188 684.777344 190.582031 694.308594 C 212.21875 701.582031 245.550781 716.84375 252.554688 722.675781 C 254.75 724.503906 259.550781 730.617188 263.226562 736.261719 C 270.378906 747.25 277.699219 753.636719 286.0625 756.191406 C 292.714844 758.222656 316.464844 758.863281 339.136719 757.621094 C 358.542969 756.554688 371.621094 756.328125 384.886719 756.820312 C 397.558594 757.289062 422.371094 754.792969 427.234375 752.554688 C 429.550781 751.492188 434.191406 747.683594 437.542969 744.09375 C 441.199219 740.183594 445.015625 737.570312 447.066406 737.578125 C 451.566406 737.597656 460.785156 736.691406 466.75 735.644531 C 469.375 735.183594 471.957031 735.296875 472.480469 735.894531 C 473.007812 736.492188 478.183594 736.347656 483.984375 735.574219 C 495.046875 734.09375 533.035156 729.949219 555.410156 727.777344 C 570.308594 726.332031 586.71875 723.160156 589.8125 721.128906 C 594.027344 718.359375 600.796875 691.183594 599.292969 683.082031 C 598.859375 680.757812 597.179688 676.546875 595.558594 673.71875 C 592.0625 667.628906 576.527344 659.023438 538.570312 642.152344 C 503.527344 626.570312 497.261719 622.417969 497.84375 615.15625 C 498.003906 613.179688 497.695312 604.261719 497.152344 595.335938 C 496.613281 586.414062 495.519531 560.367188 494.71875 537.460938 C 493.917969 514.554688 492.332031 486.898438 491.195312 476 C 490.058594 465.101562 488.953125 452.492188 488.742188 447.976562 C 487.117188 413.347656 481.847656 350.785156 479.3125 335.996094 C 477.738281 326.832031 474.53125 292.617188 472.378906 262.085938 C 467.085938 186.976562 466.136719 175.996094 463.074219 154.132812 C 461.089844 140.015625 459.847656 124.449219 457.269531 81.488281 C 456.140625 62.691406 454.96875 55.730469 452.15625 51.113281 C 449.664062 47.027344 449.652344 47.023438 432.117188 44.515625 M 398.542969 193.484375 C 373.042969 189.757812 364.972656 188.585938 360.859375 188.015625 C 358.492188 187.6875 351.800781 192.605469 351.9375 194.574219 C 352.15625 197.714844 349.507812 196.292969 348.734375 192.855469 C 348.132812 190.179688 347.445312 190.261719 342.199219 193.644531 C 338.972656 195.726562 335.988281 196.789062 335.5625 196.003906 C 335.136719 195.222656 336.382812 193.632812 338.328125 192.46875 C 341.503906 190.570312 341.621094 190.28125 339.453125 189.621094 C 336.992188 188.867188 336.789062 186.988281 339.035156 185.789062 C 339.726562 185.421875 340.863281 186 341.5625 187.066406 C 342.417969 188.363281 343.984375 188.589844 346.28125 187.75 C 349.429688 186.59375 349.089844 186.292969 342.226562 184.148438 L 334.734375 181.808594 L 329.351562 196.488281 C 294.898438 290.460938 286.957031 313.878906 289.535156 313.894531 C 290.714844 313.902344 296.488281 314.578125 302.371094 315.398438 C 351.160156 322.191406 364.730469 323.601562 390.675781 324.585938 C 406.945312 325.203125 428.332031 325.664062 438.203125 325.601562 C 457.46875 325.492188 458.523438 324.941406 457.304688 315.683594 C 456.675781 310.914062 454.421875 309.257812 454.339844 313.507812 C 454.3125 315.035156 453.957031 314.511719 453.550781 312.351562 C 452.953125 309.160156 453.269531 308.300781 455.253906 307.78125 C 457.265625 307.25 457.296875 306.832031 455.441406 305.378906 C 454.0625 304.304688 453.777344 302.761719 454.707031 301.417969 C 456.027344 299.503906 450.441406 221.25 448.054688 208.183594 C 447.226562 203.648438 446.722656 203.289062 437.347656 200.574219 C 431.9375 199.003906 414.472656 195.816406 398.542969 193.484375 M 350.058594 187.988281 C 349.828125 188.742188 350.171875 189.964844 350.820312 190.703125 C 351.46875 191.445312 352.3125 191.027344 352.695312 189.777344 C 353.078125 188.53125 352.734375 187.308594 351.933594 187.0625 C 351.132812 186.816406 350.289062 187.234375 350.058594 187.988281 M 337.535156 197.769531 C 332.222656 200.703125 331.511719 201.527344 333.707031 202.199219 C 336.226562 202.96875 336.191406 203.148438 333.179688 204.949219 C 329.128906 207.367188 328.304688 209.582031 332.03125 208.023438 C 333.558594 207.382812 335.105469 207.410156 335.464844 208.082031 C 335.820312 208.753906 335.417969 209.089844 334.570312 208.832031 C 331.789062 207.980469 329.707031 212.492188 330.933594 216.703125 C 332.019531 220.4375 331.917969 220.761719 329.828125 220.125 C 328.5625 219.738281 327.738281 220.234375 328 221.226562 C 328.261719 222.222656 327.375 223.757812 326.027344 224.644531 C 324.679688 225.53125 323.910156 226.875 324.3125 227.632812 C 324.714844 228.390625 326.304688 228.0625 327.847656 226.910156 C 330.539062 224.894531 330.746094 224.992188 333.117188 229.453125 C 335.550781 234.027344 335.53125 234.132812 331.804688 236.789062 C 329.726562 238.269531 328.21875 238.789062 328.460938 237.941406 C 328.699219 237.09375 329.929688 235.851562 331.191406 235.179688 C 332.984375 234.226562 333.113281 233.261719 331.789062 230.773438 C 330.203125 227.789062 329.851562 227.699219 326.308594 229.363281 C 321.992188 231.390625 322.003906 233.597656 326.320312 231.792969 C 331.164062 229.769531 330.441406 232.417969 325.234375 235.789062 C 321.480469 238.21875 320.558594 239.535156 321.445312 241.199219 C 322.332031 242.867188 322.191406 243.269531 320.867188 242.867188 C 319.90625 242.574219 318.820312 243.316406 318.453125 244.519531 C 317.644531 247.160156 319.976562 248.164062 321.664062 245.898438 C 322.324219 245.003906 323.242188 244.921875 323.699219 245.714844 C 324.152344 246.503906 322.738281 247.945312 320.546875 248.917969 C 316.789062 250.585938 314.460938 253.652344 316.484375 254.269531 C 316.988281 254.421875 319.507812 253.21875 322.074219 251.597656 C 324.640625 249.972656 326.503906 249.425781 326.214844 250.378906 C 325.925781 251.332031 324.90625 252.320312 323.957031 252.570312 C 321.558594 253.199219 321.328125 254.628906 322.953125 258.726562 C 324.292969 262.105469 324.355469 262.089844 324.464844 258.300781 L 324.578125 254.351562 L 326.449219 258.90625 C 327.476562 261.410156 329.007812 263.09375 329.851562 262.644531 C 330.695312 262.199219 330.65625 261.003906 329.769531 259.996094 C 328.859375 258.960938 328.878906 257.226562 329.816406 256.03125 C 330.910156 254.625 330.800781 254.082031 329.492188 254.425781 C 328.078125 254.796875 328.207031 253.65625 329.9375 250.433594 C 331.390625 247.738281 331.945312 244.914062 331.316406 243.414062 C 330.511719 241.484375 331.0625 240.425781 333.695312 238.851562 C 335.671875 237.671875 337.042969 235.660156 336.933594 234.09375 C 336.828125 232.605469 337.699219 230.761719 338.867188 229.992188 C 340.371094 229 340.617188 228.167969 339.703125 227.128906 C 338.996094 226.324219 339.199219 224.53125 340.15625 223.144531 C 341.164062 221.679688 341.207031 220.414062 340.25 220.125 C 339.351562 219.847656 338.816406 220.402344 339.066406 221.355469 C 339.316406 222.304688 338.828125 222.871094 337.980469 222.613281 C 335.777344 221.941406 336.542969 220.480469 340.257812 218.261719 C 344.1875 215.910156 341.53125 214.726562 337.339844 216.957031 C 333.253906 219.128906 334.179688 216.890625 338.433594 214.304688 C 341.746094 212.292969 341.730469 212.21875 337.9375 212.023438 C 335.78125 211.910156 334.960938 211.691406 336.109375 211.539062 C 337.261719 211.382812 339.3125 210.15625 340.664062 208.8125 C 342.867188 206.621094 342.742188 206.359375 339.425781 206.289062 C 336.574219 206.226562 336.335938 206.015625 338.378906 205.359375 C 339.835938 204.890625 342.066406 205.214844 343.335938 206.078125 C 346.160156 208.003906 347.074219 205.800781 344.851562 202.417969 C 343.957031 201.054688 343.429688 199.257812 343.679688 198.433594 C 343.933594 197.609375 345.210938 198.621094 346.519531 200.691406 L 348.902344 204.449219 L 347.726562 200.199219 C 346.035156 194.050781 344.800781 193.757812 337.535156 197.769531 M 334.21875 225.285156 C 334.910156 226.722656 335.769531 227.75 336.132812 227.570312 C 337.246094 227.011719 335.90625 223.574219 334.390625 223.109375 C 333.605469 222.871094 333.527344 223.851562 334.21875 225.285156 M 325.675781 244.335938 C 325.925781 245.289062 326.785156 246.269531 327.585938 246.511719 C 328.386719 246.757812 328.839844 246.179688 328.589844 245.226562 C 328.335938 244.273438 327.476562 243.292969 326.675781 243.050781 C 325.875 242.804688 325.425781 243.382812 325.675781 244.335938 M 317.871094 259.855469 C 317.90625 263.164062 317.757812 263.210938 315.90625 260.449219 C 314.082031 257.726562 313.917969 257.730469 314.09375 260.507812 C 314.21875 262.53125 313.214844 263.949219 311.113281 264.722656 C 306.546875 266.402344 310.589844 267.386719 316.328125 265.992188 L 320.996094 264.855469 L 316.351562 267.027344 C 313.515625 268.355469 312.300781 269.636719 313.238281 270.324219 C 314.078125 270.941406 315.808594 274.414062 317.085938 278.035156 L 319.40625 284.625 L 315.5625 277.421875 C 313.449219 273.460938 310.925781 270.242188 309.953125 270.269531 C 305.957031 270.371094 304.863281 280.085938 307.960938 287.894531 C 309.644531 292.132812 310.398438 295.410156 309.636719 295.175781 C 308.871094 294.941406 307.675781 292.785156 306.976562 290.382812 C 306.273438 287.976562 304.988281 285.792969 304.109375 285.523438 C 303.171875 285.238281 303.039062 286.8125 303.785156 289.382812 C 304.976562 293.476562 304.851562 293.777344 301.558594 294.65625 C 299.640625 295.171875 297.78125 296.53125 297.429688 297.683594 C 296.988281 299.128906 298.261719 299.046875 301.578125 297.414062 C 305.613281 295.425781 306.472656 295.457031 307.066406 297.617188 C 307.453125 299.027344 307.566406 300.835938 307.320312 301.636719 C 307.078125 302.4375 306.601562 302.085938 306.261719 300.859375 C 305.453125 297.921875 301.925781 298.347656 297.085938 301.96875 C 293.503906 304.644531 293.34375 305.066406 295.164062 306.964844 C 296.253906 308.105469 296.855469 309.988281 296.5 311.148438 C 296.148438 312.308594 296.683594 313.515625 297.691406 313.820312 C 299.957031 314.515625 305.484375 309.910156 304.46875 308.175781 C 304.0625 307.476562 303.1875 307.640625 302.527344 308.53125 C 301.859375 309.421875 300.554688 309.917969 299.621094 309.625 C 298.6875 309.335938 300.617188 307.777344 303.914062 306.160156 C 310.359375 302.996094 313.949219 302.660156 308.886719 305.695312 C 306.316406 307.238281 305.992188 308.0625 306.917969 310.714844 C 307.984375 313.757812 308.105469 313.796875 309.941406 311.640625 C 313.664062 307.253906 314.179688 304.984375 312.316406 301.164062 C 310.757812 297.960938 310.839844 297.269531 312.800781 297.132812 C 314.101562 297.039062 316.035156 297.644531 317.097656 298.472656 C 318.15625 299.300781 319.246094 299.253906 319.519531 298.367188 C 319.789062 297.476562 319.398438 296.566406 318.652344 296.335938 C 317.90625 296.109375 317.277344 294.484375 317.257812 292.726562 C 317.242188 290.96875 316.542969 289.324219 315.710938 289.070312 C 314.878906 288.816406 314.28125 289.808594 314.382812 291.277344 C 314.542969 293.542969 314.3125 293.554688 312.863281 291.351562 C 311.621094 289.460938 311.707031 288.609375 313.191406 288.21875 C 314.375 287.910156 314.992188 286.703125 314.667969 285.34375 C 314.359375 284.058594 315.152344 284.695312 316.429688 286.757812 C 317.707031 288.820312 319.402344 290.136719 320.191406 289.679688 C 320.980469 289.222656 320.875 288.289062 319.953125 287.601562 C 318.605469 286.601562 318.765625 286.035156 320.777344 284.714844 C 322.820312 283.371094 322.910156 282.585938 321.269531 280.394531 C 319.929688 278.609375 319.902344 277.554688 321.183594 277.214844 C 322.523438 276.863281 322.8125 276.015625 322.148438 274.421875 C 321.621094 273.164062 321.8125 271.804688 322.570312 271.398438 C 324.589844 270.328125 327.21875 262.324219 325.707031 261.863281 C 325 261.648438 324.191406 262.226562 323.90625 263.152344 C 323.625 264.074219 322.601562 263.042969 321.632812 260.863281 C 319.359375 255.742188 317.820312 255.328125 317.871094 259.855469 M 311.40625 278.011719 C 311.160156 278.8125 311.492188 280.070312 312.140625 280.8125 C 312.789062 281.550781 313.523438 281.5 313.769531 280.699219 C 314.011719 279.898438 313.679688 278.636719 313.03125 277.898438 C 312.382812 277.160156 311.648438 277.207031 311.40625 278.011719 M 299.710938 303.28125 C 297.765625 304.445312 296.851562 305.601562 297.679688 305.855469 C 299.511719 306.414062 304.414062 303.363281 303.734375 302.085938 C 303.46875 301.582031 301.65625 302.117188 299.710938 303.28125 M 451.300781 500.363281 C 394.457031 503.082031 324.246094 495.40625 278.308594 481.460938 C 268.371094 478.441406 261.738281 477.054688 261.46875 477.9375 C 261.222656 478.738281 261.679688 479.59375 262.480469 479.839844 C 264.800781 480.550781 263.617188 482.226562 258.320312 485.734375 C 254.8125 488.058594 253.199219 488.390625 252.746094 486.878906 C 252.023438 484.476562 245.382812 483.679688 244.699219 485.914062 C 244.453125 486.710938 245.90625 487.441406 247.917969 487.542969 C 250.652344 487.683594 252.292969 489.144531 254.410156 493.335938 C 255.964844 496.417969 256.933594 498.910156 256.566406 498.867188 C 256.195312 498.828125 254.4375 498.527344 252.65625 498.195312 C 250.875 497.859375 247.347656 498.855469 244.8125 500.402344 C 240.660156 502.9375 240 502.925781 238.085938 500.265625 C 236.332031 497.832031 236.402344 497.03125 238.496094 495.652344 C 241.855469 493.445312 244.324219 494.316406 242.25 496.976562 C 240.882812 498.722656 241.070312 498.890625 243.328125 497.945312 C 245.683594 496.960938 245.589844 495.871094 242.636719 489.945312 C 239.273438 483.1875 238.910156 479.007812 241.761719 479.882812 C 242.5625 480.125 242.996094 481.0625 242.71875 481.960938 C 242.367188 483.113281 243.007812 483.265625 244.878906 482.484375 C 246.34375 481.871094 247.988281 481.882812 248.535156 482.507812 C 249.082031 483.128906 250.710938 482.617188 252.152344 481.359375 C 254.289062 479.503906 254.386719 478.960938 252.683594 478.441406 C 251.53125 478.089844 249.167969 478.558594 247.429688 479.480469 C 244.753906 480.902344 244.160156 480.785156 243.570312 478.699219 C 242.976562 476.59375 242.582031 476.488281 240.84375 477.960938 C 239.726562 478.910156 238.496094 479.085938 238.105469 478.359375 C 236.792969 475.886719 241.917969 474.042969 246.554688 475.316406 C 249.09375 476.015625 252.039062 476.125 253.101562 475.558594 C 254.410156 474.863281 253.058594 474.011719 248.910156 472.921875 C 245.542969 472.039062 242.589844 471.960938 242.347656 472.753906 C 242.105469 473.546875 241.363281 473.164062 240.695312 471.910156 C 240.027344 470.65625 237.746094 469.097656 235.621094 468.449219 C 231.773438 467.273438 231.746094 467.308594 226.503906 481.191406 C 223.613281 488.847656 214.980469 514.039062 207.324219 537.167969 L 193.398438 579.226562 L 198.734375 583.515625 C 204.554688 588.195312 210.40625 590.792969 207.5 587.410156 C 206.199219 585.894531 206.589844 585.375 209.453125 584.808594 C 212.492188 584.210938 212.785156 584.417969 211.402344 586.191406 C 209.347656 588.824219 211.757812 591.710938 217.429688 593.40625 L 221.808594 594.714844 L 219.367188 590.976562 C 216.515625 586.621094 216.59375 585.261719 219.632812 586.191406 C 220.835938 586.558594 222.023438 586.191406 222.273438 585.375 C 222.523438 584.558594 220.976562 583.683594 218.839844 583.433594 C 213.964844 582.859375 207.480469 578.210938 207.265625 575.136719 C 207.175781 573.855469 206.097656 572.5 204.871094 572.125 C 203.644531 571.75 202.824219 570.84375 203.046875 570.109375 C 203.273438 569.371094 203.375 567.429688 203.269531 565.796875 C 203.101562 563.09375 203.269531 563.09375 205.089844 565.808594 C 206.945312 568.578125 207.089844 568.527344 207.050781 565.125 C 207.023438 562.367188 208.046875 560.988281 211.152344 559.609375 C 213.429688 558.597656 214.980469 557.191406 214.605469 556.484375 C 214.230469 555.777344 212.90625 555.734375 211.671875 556.394531 C 208.125 558.28125 206.796875 557.105469 209.664062 554.609375 C 211.734375 552.808594 211.996094 551.695312 210.953125 549.132812 C 209.804688 546.308594 209.886719 546.097656 211.621094 547.429688 C 212.710938 548.265625 215.402344 548.21875 217.601562 547.328125 C 220.714844 546.070312 221.199219 545.394531 219.777344 544.285156 C 218.773438 543.5 217.429688 543.554688 216.796875 544.40625 C 216.160156 545.257812 215.269531 545.308594 214.808594 544.515625 C 214.351562 543.726562 215.4375 542.207031 217.214844 541.144531 C 218.996094 540.082031 220.625 538.644531 220.835938 537.953125 C 221.046875 537.265625 219.902344 537.6875 218.289062 538.890625 C 216.679688 540.097656 215.023438 540.449219 214.609375 539.675781 C 214.195312 538.898438 215.355469 537.367188 217.1875 536.273438 C 220.234375 534.453125 220.378906 534.027344 218.902344 531.25 C 217.644531 528.894531 217.835938 527.667969 219.765625 525.753906 C 222.796875 522.734375 223.695312 522.933594 225.089844 526.941406 C 225.683594 528.652344 226.820312 529.710938 227.617188 529.289062 C 228.410156 528.867188 228.007812 526.699219 226.71875 524.472656 C 225.40625 522.207031 225.035156 519.589844 225.875 518.515625 C 226.699219 517.464844 227.125 515.699219 226.828125 514.589844 C 226.535156 513.484375 226.871094 510.394531 227.585938 507.726562 C 228.539062 504.136719 229.34375 503.238281 230.667969 504.269531 C 231.652344 505.039062 232.273438 504.964844 232.046875 504.105469 C 231.820312 503.242188 232.558594 502.460938 233.691406 502.359375 C 235 502.246094 234.890625 501.875 233.386719 501.335938 C 229.21875 499.839844 230.28125 495.195312 235.417969 492.460938 C 238.042969 491.066406 240.546875 490.589844 240.980469 491.410156 C 241.414062 492.226562 239.96875 493.625 237.765625 494.515625 L 233.765625 496.136719 L 236.324219 500.601562 C 237.726562 503.058594 238.253906 505.28125 237.488281 505.542969 C 236.722656 505.804688 234.320312 507.628906 232.15625 509.59375 L 228.21875 513.167969 L 232.28125 510.636719 C 235.617188 508.5625 236.632812 508.550781 237.96875 510.582031 C 238.859375 511.941406 239.175781 514.449219 238.667969 516.15625 C 237.921875 518.660156 238.136719 518.925781 239.769531 517.519531 C 241.199219 516.289062 241.222656 514.609375 239.851562 511.820312 C 238.6875 509.460938 238.574219 507.003906 239.5625 505.734375 C 241.988281 502.628906 244.476562 504.003906 242.433594 507.316406 C 240.917969 509.773438 241.382812 509.769531 246.105469 507.253906 C 249.074219 505.675781 251.339844 503.746094 251.132812 502.964844 C 250.929688 502.1875 249.535156 502.472656 248.03125 503.597656 C 246.53125 504.722656 244.988281 505.058594 244.609375 504.34375 C 244.230469 503.628906 245.75 501.988281 247.988281 500.695312 C 251.933594 498.414062 252.085938 498.441406 253.222656 501.710938 C 254.246094 504.648438 253.851562 505.480469 250.132812 508.234375 C 247.789062 509.972656 245.335938 511.230469 244.6875 511.03125 C 244.035156 510.835938 243.28125 511.402344 243.007812 512.296875 C 242.734375 513.191406 243.871094 513.980469 245.539062 514.046875 C 247.820312 514.140625 248.183594 514.699219 247.015625 516.304688 C 246.164062 517.476562 244.207031 518.941406 242.671875 519.558594 C 241.136719 520.175781 240.261719 521.339844 240.730469 522.152344 C 241.195312 522.957031 242.121094 522.890625 242.78125 521.996094 C 244.941406 519.09375 247.78125 521.429688 246.640625 525.167969 C 246.027344 527.167969 244.953125 528.632812 244.253906 528.417969 C 243.550781 528.203125 243.191406 527.335938 243.449219 526.488281 C 243.707031 525.640625 243.085938 525.164062 242.0625 525.433594 C 240.898438 525.738281 241.09375 527.058594 242.578125 528.960938 C 245.503906 532.707031 244.617188 536.097656 240.179688 538.136719 C 236.984375 539.601562 232.644531 543.984375 233.984375 544.390625 C 234.324219 544.496094 236.707031 543.363281 239.273438 541.871094 L 243.9375 539.15625 L 240.890625 547.972656 C 239.214844 552.820312 237.296875 557.074219 236.632812 557.429688 C 235.964844 557.785156 235.886719 559.191406 236.457031 560.558594 C 237.25 562.453125 236.667969 563.539062 234.003906 565.132812 C 231.328125 566.730469 230.988281 567.367188 232.558594 567.847656 C 233.714844 568.199219 234.210938 570.089844 233.695312 572.199219 C 233.195312 574.246094 232.707031 577.53125 232.609375 579.5 C 232.480469 582.011719 230.949219 583.9375 227.484375 585.953125 C 223.460938 588.292969 222.753906 589.324219 223.671875 591.523438 C 224.292969 593.003906 225.242188 593.984375 225.78125 593.699219 C 226.320312 593.410156 227.484375 594.273438 228.367188 595.613281 C 230.023438 598.136719 278.75 614.234375 279.296875 612.441406 C 279.445312 611.960938 283.941406 613.175781 289.289062 615.148438 C 322.4375 627.359375 409.089844 634.285156 460.621094 628.839844 C 482.324219 626.546875 481.042969 627.925781 479.578125 608.410156 C 478.886719 599.246094 478.5625 590.976562 478.851562 590.03125 C 479.699219 587.257812 472.753906 502.566406 471.519531 500.695312 C 471.066406 500.003906 461.964844 499.855469 451.300781 500.363281 M 234.351562 483.285156 C 233.972656 484.535156 234.4375 485.351562 235.390625 485.101562 C 236.34375 484.851562 237.3125 484.03125 237.542969 483.273438 C 237.773438 482.519531 237.304688 481.703125 236.503906 481.460938 C 235.703125 481.214844 234.734375 482.035156 234.351562 483.285156 M 257.089844 489.449219 C 256.300781 490.140625 255.898438 491.164062 256.195312 491.722656 C 256.917969 493.085938 260.320312 492.113281 260.847656 490.394531 C 261.414062 488.535156 258.863281 487.890625 257.089844 489.449219 M 235.3125 486.664062 C 231.238281 489.171875 231.402344 491.84375 235.511719 489.914062 C 239.265625 488.152344 240.921875 485.941406 238.875 485.429688 C 238.261719 485.277344 236.660156 485.832031 235.3125 486.664062 M 247.386719 492.746094 C 247.144531 493.546875 247.597656 494.40625 248.398438 494.648438 C 249.199219 494.894531 250.054688 494.4375 250.300781 493.636719 C 250.546875 492.835938 250.089844 491.980469 249.289062 491.734375 C 248.488281 491.492188 247.632812 491.945312 247.386719 492.746094 M 233.832031 518.867188 C 234.085938 519.816406 234.578125 520.683594 234.929688 520.792969 C 235.285156 520.902344 235.773438 520.335938 236.019531 519.53125 C 236.261719 518.730469 235.769531 517.863281 234.921875 517.605469 C 234.074219 517.347656 233.582031 517.914062 233.832031 518.867188 M 230.988281 520.441406 C 230.261719 522.960938 231.941406 526.988281 233.398438 526.210938 C 234.175781 525.800781 234.042969 524.011719 233.105469 522.246094 C 232.164062 520.476562 231.210938 519.664062 230.988281 520.441406 M 233.835938 528.882812 C 224.617188 534.820312 224.3125 535.132812 225.527344 537.414062 C 226.414062 539.082031 226.902344 538.949219 227.539062 536.859375 C 228.003906 535.339844 230.699219 532.800781 233.527344 531.21875 C 236.355469 529.632812 238.441406 527.90625 238.160156 527.382812 C 237.878906 526.859375 235.933594 527.53125 233.835938 528.882812 M 234.792969 534.015625 L 229.800781 537.375 L 235.371094 536.03125 C 240.914062 534.691406 242.414062 533.445312 240.6875 531.613281 C 240.191406 531.085938 237.539062 532.167969 234.792969 534.015625 M 227.441406 542.394531 C 227.195312 543.195312 227.691406 544.0625 228.539062 544.320312 C 229.386719 544.582031 229.875 544.015625 229.625 543.0625 C 229.375 542.109375 228.882812 541.242188 228.527344 541.132812 C 228.175781 541.023438 227.6875 541.59375 227.441406 542.394531 M 233.496094 548.882812 C 232.089844 550.28125 231.546875 551.609375 232.292969 551.839844 C 233.789062 552.296875 237.203125 548.515625 236.496094 547.183594 C 236.25 546.722656 234.898438 547.488281 233.496094 548.882812 M 218.15625 550.632812 C 216.335938 551.578125 214.695312 552.832031 214.515625 553.421875 C 214.335938 554.011719 215.53125 553.78125 217.175781 552.90625 C 220.066406 551.371094 223.109375 551.359375 222.640625 552.894531 C 222.515625 553.304688 221.265625 554.640625 219.863281 555.859375 C 217.730469 557.714844 217.71875 559.042969 219.792969 563.902344 C 222.632812 570.5625 223.839844 569.613281 221.210938 562.785156 C 219.113281 557.335938 219.371094 555.855469 222.261719 556.738281 C 225.175781 557.628906 225.621094 555.625 223.332031 551.929688 C 221.652344 549.210938 221.140625 549.085938 218.15625 550.632812 M 226.226562 551.578125 C 225.984375 552.378906 226.476562 553.246094 227.324219 553.507812 C 228.171875 553.765625 228.664062 553.199219 228.414062 552.246094 C 228.164062 551.292969 227.667969 550.425781 227.316406 550.316406 C 226.960938 550.210938 226.472656 550.777344 226.226562 551.578125 M 230.828125 555.636719 C 230.128906 556.007812 229.351562 556.988281 229.097656 557.816406 C 228.820312 558.730469 229.527344 558.851562 230.890625 558.125 C 232.128906 557.46875 232.90625 556.488281 232.617188 555.945312 C 232.328125 555.40625 231.523438 555.265625 230.828125 555.636719 M 223.558594 560.316406 C 223.3125 561.117188 223.769531 561.976562 224.570312 562.21875 C 225.371094 562.464844 226.226562 562.007812 226.46875 561.207031 C 226.714844 560.40625 226.261719 559.550781 225.460938 559.304688 C 224.65625 559.0625 223.800781 559.515625 223.558594 560.316406 M 212.226562 561.953125 C 210.378906 562.9375 210.808594 564.75 214.261719 570.589844 C 216.664062 574.65625 219.144531 577.710938 219.773438 577.375 C 220.402344 577.042969 219.972656 575.511719 218.824219 573.976562 C 217.59375 572.335938 217.410156 570.589844 218.375 569.742188 C 219.445312 568.800781 219.296875 568.492188 217.945312 568.847656 C 215.707031 569.433594 212.417969 565.503906 213.148438 563.117188 C 213.390625 562.316406 214.40625 562.894531 215.402344 564.402344 C 216.949219 566.734375 217.207031 566.800781 217.160156 564.835938 C 217.089844 561.671875 215.023438 560.46875 212.226562 561.953125 M 225.675781 569.023438 C 225.417969 569.871094 225.984375 570.359375 226.9375 570.109375 C 227.886719 569.859375 228.757812 569.367188 228.863281 569.011719 C 228.972656 568.65625 228.40625 568.167969 227.605469 567.925781 C 226.800781 567.679688 225.933594 568.175781 225.675781 569.023438 M 223.039062 573.535156 C 223.730469 574.972656 224.589844 576 224.953125 575.820312 C 226.066406 575.261719 224.726562 571.824219 223.210938 571.359375 C 222.425781 571.121094 222.347656 572.101562 223.039062 573.535156 M 227.972656 574.875 C 228.082031 576.476562 228.648438 577.535156 229.234375 577.222656 C 229.820312 576.910156 229.730469 575.601562 229.035156 574.308594 C 228.035156 572.441406 227.816406 572.558594 227.972656 574.875 M 207.984375 569.589844 C 207.746094 570.371094 208.464844 571.726562 209.585938 572.601562 C 210.835938 573.578125 211.605469 573.457031 211.574219 572.285156 C 211.515625 569.886719 208.570312 567.675781 207.984375 569.589844 M 224.757812 580.671875 C 224.9375 583.246094 227.28125 584.621094 227.921875 582.523438 C 228.140625 581.808594 227.480469 580.570312 226.453125 579.769531 C 225.210938 578.796875 224.644531 579.097656 224.757812 580.671875 M 219.957031 579.921875 C 219.21875 580.570312 219.304688 581.316406 220.152344 581.574219 C 221 581.832031 221.898438 581.390625 222.140625 580.589844 C 222.386719 579.789062 222.296875 579.042969 221.945312 578.9375 C 221.589844 578.828125 220.695312 579.273438 219.957031 579.921875 "/></g></g></g><g clip-rule="nonzero" clip-path="url(#f5e390f14b)"><path style=" stroke:none;fill-rule:nonzero;fill:#f3d000;fill-opacity:1;" d="M 996.761719 263.648438 L 1108.046875 263.648438 L 1108.046875 486.652344 L 996.761719 486.652344 Z M 996.761719 263.648438 "/></g><g clip-rule="nonzero" clip-path="url(#3e2489d8f1)"><path style=" stroke:none;fill-rule:nonzero;fill:#00bf63;fill-opacity:1;" d="M 877.875 263.648438 L 996.761719 263.648438 L 996.761719 486.566406 L 877.875 486.566406 Z M 877.875 263.648438 "/></g><g clip-rule="nonzero" clip-path="url(#07f3cb86a6)"><path style=" stroke:none;fill-rule:nonzero;fill:#1d93af;fill-opacity:1;" d="M 761.476562 263.648438 L 880.363281 263.648438 L 880.363281 486.566406 L 761.476562 486.566406 Z M 761.476562 263.648438 "/></g><g clip-rule="nonzero" clip-path="url(#62b666d18d)"><path style=" stroke:none;fill-rule:nonzero;fill:#ff66c4;fill-opacity:1;" d="M 1108.046875 263.648438 L 1215.527344 263.648438 L 1215.527344 486.589844 L 1108.046875 486.589844 Z M 1108.046875 263.648438 "/></g><g style="fill:#ffffff;fill-opacity:1;"><g transform="translate(773.057272, 484.491113)"><path style="stroke:none" d="M 2.953125 0 L 19.25 -168.765625 L 76.421875 -168.765625 L 92.53125 0 L 60.515625 0 L 58.15625 -27.3125 L 37.71875 -27.3125 L 35.75 0 Z M 40.28125 -54.21875 L 55.59375 -54.21875 L 48.140625 -140.078125 L 46.5625 -140.078125 Z M 40.28125 -54.21875 "/></g></g><g style="fill:#ffffff;fill-opacity:1;"><g transform="translate(893.689339, 484.491113)"><path style="stroke:none" d="M 7.46875 -168.765625 L 59.328125 -168.765625 C 67.585938 -168.765625 73.972656 -166.894531 78.484375 -163.15625 C 83.003906 -159.425781 86.050781 -154.1875 87.625 -147.4375 C 89.195312 -140.695312 89.984375 -132.085938 89.984375 -121.609375 C 89.984375 -112.046875 88.738281 -104.578125 86.25 -99.203125 C 83.757812 -93.835938 79.4375 -90.109375 73.28125 -88.015625 C 78.382812 -86.972656 82.082031 -84.421875 84.375 -80.359375 C 86.675781 -76.296875 87.828125 -70.796875 87.828125 -63.859375 L 87.421875 0 L 54.421875 0 L 54.421875 -66.015625 C 54.421875 -70.734375 53.503906 -73.742188 51.671875 -75.046875 C 49.835938 -76.359375 46.5 -77.015625 41.65625 -77.015625 L 41.65625 0 L 7.46875 0 Z M 49.90625 -106.296875 C 54.613281 -106.296875 56.96875 -111.398438 56.96875 -121.609375 C 56.96875 -126.066406 56.769531 -129.40625 56.375 -131.625 C 55.988281 -133.851562 55.269531 -135.394531 54.21875 -136.25 C 53.175781 -137.101562 51.671875 -137.53125 49.703125 -137.53125 L 41.84375 -137.53125 L 41.84375 -106.296875 Z M 49.90625 -106.296875 "/></g></g><g style="fill:#ffffff;fill-opacity:1;"><g transform="translate(1012.749695, 484.491113)"><path style="stroke:none" d="M 22 0 L 22 -136.34375 L 1.96875 -136.34375 L 1.96875 -168.765625 L 75.84375 -168.765625 L 75.84375 -136.34375 L 55.796875 -136.34375 L 55.796875 0 Z M 22 0 "/></g></g><g style="fill:#ffffff;fill-opacity:1;"><g transform="translate(1115.896423, 484.491113)"><path style="stroke:none" d="M 7.46875 0 L 7.46875 -168.765625 L 75.046875 -168.765625 L 75.046875 -136.15625 L 41.84375 -136.15625 L 41.84375 -103.34375 L 73.671875 -103.34375 L 73.671875 -71.515625 L 41.84375 -71.515625 L 41.84375 -32.8125 L 77.21875 -32.8125 L 77.21875 0 Z M 7.46875 0 "/></g></g><g style="fill:#000000;fill-opacity:1;"><g transform="translate(520.542411, 575.845314)"><path style="stroke:none" d="M 115.390625 0 L 84.40625 0 C 82.988281 -1.957031 81.992188 -4.460938 81.421875 -7.515625 C 80.910156 -9.878906 80.144531 -12.191406 79.125 -14.453125 C 78.113281 -16.722656 76.363281 -18.609375 73.875 -20.109375 C 71.382812 -21.617188 67.691406 -22.429688 62.796875 -22.546875 L 41.5 -22.546875 L 41.5 0 L 8.71875 0 L 8.71875 -78.140625 L 62.03125 -78.140625 C 74.769531 -78.140625 85.050781 -77.1875 92.875 -75.28125 C 100.695312 -73.382812 106.40625 -70.390625 110 -66.296875 C 113.59375 -62.210938 115.390625 -56.882812 115.390625 -50.3125 C 115.390625 -44.832031 114.144531 -40.222656 111.65625 -36.484375 C 109.175781 -32.742188 105.25 -29.785156 99.875 -27.609375 C 105.070312 -25.460938 108.441406 -22.890625 109.984375 -19.890625 C 111.523438 -16.898438 112.476562 -13.609375 112.84375 -10.015625 C 113.207031 -6.828125 114.054688 -3.488281 115.390625 0 Z M 41.5 -41.828125 L 60.234375 -41.875 C 65.460938 -41.875 69.582031 -42.109375 72.59375 -42.578125 C 75.601562 -43.054688 77.828125 -43.703125 79.265625 -44.515625 C 80.703125 -45.335938 81.617188 -46.242188 82.015625 -47.234375 C 82.410156 -48.234375 82.609375 -49.257812 82.609375 -50.3125 C 82.609375 -51.375 82.410156 -52.410156 82.015625 -53.421875 C 81.617188 -54.441406 80.703125 -55.359375 79.265625 -56.171875 C 77.828125 -56.992188 75.601562 -57.640625 72.59375 -58.109375 C 69.582031 -58.578125 65.460938 -58.8125 60.234375 -58.8125 L 41.5 -58.8125 Z M 41.5 -41.828125 "/></g></g><g style="fill:#000000;fill-opacity:1;"><g transform="translate(640.299127, 575.845314)"><path style="stroke:none" d="M 102.8125 0 L 8.71875 0 L 8.71875 -78.140625 L 98.515625 -78.140625 L 98.515625 -58.8125 L 41.5 -58.8125 L 41.5 -46.5625 L 89.6875 -46.5625 L 89.6875 -31.53125 L 41.5 -31.53125 L 41.5 -19.328125 L 102.8125 -19.328125 Z M 102.8125 0 "/></g></g><g style="fill:#000000;fill-opacity:1;"><g transform="translate(747.475664, 575.845314)"><path style="stroke:none" d="M 51.625 1.6875 C 41.0625 1.6875 32.546875 0.550781 26.078125 -1.71875 C 19.617188 -3.988281 14.703125 -7.109375 11.328125 -11.078125 C 7.953125 -15.054688 5.679688 -19.640625 4.515625 -24.828125 L 39.3125 -24.828125 C 41.894531 -21.128906 46 -19.28125 51.625 -19.28125 C 57.25 -19.28125 61.351562 -21.128906 63.9375 -24.828125 C 64.15625 -25.191406 64.265625 -25.519531 64.265625 -25.8125 C 64.265625 -26.789062 62.960938 -27.523438 60.359375 -28.015625 C 57.765625 -28.503906 53.890625 -28.878906 48.734375 -29.140625 C 42.242188 -29.429688 35.421875 -30.117188 28.265625 -31.203125 C 12.328125 -33.671875 4.359375 -40.078125 4.359375 -50.421875 C 4.359375 -51.296875 4.410156 -52.222656 4.515625 -53.203125 C 5.679688 -58.398438 7.953125 -62.984375 11.328125 -66.953125 C 14.703125 -70.929688 19.617188 -74.054688 26.078125 -76.328125 C 32.546875 -78.597656 41.0625 -79.734375 51.625 -79.734375 C 62.1875 -79.734375 70.695312 -78.597656 77.15625 -76.328125 C 83.625 -74.054688 88.546875 -70.929688 91.921875 -66.953125 C 95.296875 -62.984375 97.566406 -58.398438 98.734375 -53.203125 L 63.9375 -53.203125 C 61.351562 -56.910156 57.25 -58.765625 51.625 -58.765625 C 46 -58.765625 41.894531 -56.910156 39.3125 -53.203125 C 39.132812 -52.910156 39.046875 -52.640625 39.046875 -52.390625 C 39.046875 -51.515625 40.285156 -50.867188 42.765625 -50.453125 C 45.253906 -50.035156 48.921875 -49.679688 53.765625 -49.390625 C 58.617188 -49.097656 63.785156 -48.625 69.265625 -47.96875 C 74.753906 -47.320312 79.882812 -46.191406 84.65625 -44.578125 C 89.425781 -42.960938 93.15625 -40.570312 95.84375 -37.40625 C 97.945312 -34.976562 99 -31.894531 99 -28.15625 C 99 -27.101562 98.910156 -25.992188 98.734375 -24.828125 C 97.566406 -19.640625 95.296875 -15.054688 91.921875 -11.078125 C 88.546875 -7.109375 83.625 -3.988281 77.15625 -1.71875 C 70.695312 0.550781 62.1875 1.6875 51.625 1.6875 Z M 51.625 1.6875 "/></g></g><g style="fill:#000000;fill-opacity:1;"><g transform="translate(850.840011, 575.845314)"><path style="stroke:none" d="M 41.5 0 L 8.71875 0 L 8.71875 -78.140625 L 41.5 -78.140625 Z M 41.5 0 "/></g></g><g style="fill:#000000;fill-opacity:1;"><g transform="translate(901.051798, 575.845314)"><path style="stroke:none" d="M 51.625 1.6875 C 41.0625 1.6875 32.546875 0.550781 26.078125 -1.71875 C 19.617188 -3.988281 14.703125 -7.109375 11.328125 -11.078125 C 7.953125 -15.054688 5.679688 -19.640625 4.515625 -24.828125 L 39.3125 -24.828125 C 41.894531 -21.128906 46 -19.28125 51.625 -19.28125 C 57.25 -19.28125 61.351562 -21.128906 63.9375 -24.828125 C 64.15625 -25.191406 64.265625 -25.519531 64.265625 -25.8125 C 64.265625 -26.789062 62.960938 -27.523438 60.359375 -28.015625 C 57.765625 -28.503906 53.890625 -28.878906 48.734375 -29.140625 C 42.242188 -29.429688 35.421875 -30.117188 28.265625 -31.203125 C 12.328125 -33.671875 4.359375 -40.078125 4.359375 -50.421875 C 4.359375 -51.296875 4.410156 -52.222656 4.515625 -53.203125 C 5.679688 -58.398438 7.953125 -62.984375 11.328125 -66.953125 C 14.703125 -70.929688 19.617188 -74.054688 26.078125 -76.328125 C 32.546875 -78.597656 41.0625 -79.734375 51.625 -79.734375 C 62.1875 -79.734375 70.695312 -78.597656 77.15625 -76.328125 C 83.625 -74.054688 88.546875 -70.929688 91.921875 -66.953125 C 95.296875 -62.984375 97.566406 -58.398438 98.734375 -53.203125 L 63.9375 -53.203125 C 61.351562 -56.910156 57.25 -58.765625 51.625 -58.765625 C 46 -58.765625 41.894531 -56.910156 39.3125 -53.203125 C 39.132812 -52.910156 39.046875 -52.640625 39.046875 -52.390625 C 39.046875 -51.515625 40.285156 -50.867188 42.765625 -50.453125 C 45.253906 -50.035156 48.921875 -49.679688 53.765625 -49.390625 C 58.617188 -49.097656 63.785156 -48.625 69.265625 -47.96875 C 74.753906 -47.320312 79.882812 -46.191406 84.65625 -44.578125 C 89.425781 -42.960938 93.15625 -40.570312 95.84375 -37.40625 C 97.945312 -34.976562 99 -31.894531 99 -28.15625 C 99 -27.101562 98.910156 -25.992188 98.734375 -24.828125 C 97.566406 -19.640625 95.296875 -15.054688 91.921875 -11.078125 C 88.546875 -7.109375 83.625 -3.988281 77.15625 -1.71875 C 70.695312 0.550781 62.1875 1.6875 51.625 1.6875 Z M 51.625 1.6875 "/></g></g><g style="fill:#000000;fill-opacity:1;"><g transform="translate(1004.416176, 575.845314)"><path style="stroke:none" d="M 66.65625 0 L 33.875 0 L 33.875 -58.8125 L 3.265625 -58.8125 L 3.265625 -78.140625 L 97.265625 -78.140625 L 97.265625 -58.8125 L 66.65625 -58.8125 Z M 66.65625 0 "/></g></g><g style="fill:#000000;fill-opacity:1;"><g transform="translate(1104.948654, 575.845314)"><path style="stroke:none" d="M 102.8125 0 L 8.71875 0 L 8.71875 -78.140625 L 98.515625 -78.140625 L 98.515625 -58.8125 L 41.5 -58.8125 L 41.5 -46.5625 L 89.6875 -46.5625 L 89.6875 -31.53125 L 41.5 -31.53125 L 41.5 -19.328125 L 102.8125 -19.328125 Z M 102.8125 0 "/></g></g><g style="fill:#000000;fill-opacity:1;"><g transform="translate(482.361582, 361.757942)"><path style="stroke:none" d="M 6.734375 -92.625 L 33.578125 -92.625 C 46.453125 -92.625 57.453125 -88.226562 66.578125 -79.4375 C 75.710938 -70.644531 80.28125 -59.625 80.28125 -46.375 C 80.28125 -33.050781 75.734375 -21.988281 66.640625 -13.1875 C 57.546875 -4.394531 46.523438 0 33.578125 0 L 6.734375 0 Z M 27.84375 -18.859375 L 31.109375 -18.859375 C 38.816406 -18.859375 45.117188 -21.457031 50.015625 -26.65625 C 54.921875 -31.863281 57.410156 -38.398438 57.484375 -46.265625 C 57.484375 -54.117188 55.03125 -60.664062 50.125 -65.90625 C 45.226562 -71.144531 38.890625 -73.765625 31.109375 -73.765625 L 27.84375 -73.765625 Z M 27.84375 -18.859375 "/></g></g><g style="fill:#000000;fill-opacity:1;"><g transform="translate(565.214893, 361.757942)"><path style="stroke:none" d="M 2.578125 -46.375 C 2.578125 -59.769531 7.144531 -71.109375 16.28125 -80.390625 C 25.414062 -89.671875 36.421875 -94.3125 49.296875 -94.3125 C 62.242188 -94.3125 73.242188 -89.6875 82.296875 -80.4375 C 91.359375 -71.195312 95.890625 -59.84375 95.890625 -46.375 C 95.890625 -32.820312 91.4375 -21.421875 82.53125 -12.171875 C 73.625 -2.929688 62.546875 1.6875 49.296875 1.6875 C 35.742188 1.6875 24.566406 -2.894531 15.765625 -12.0625 C 6.972656 -21.238281 2.578125 -32.675781 2.578125 -46.375 Z M 25.375 -46.375 C 25.375 -41.507812 26.117188 -37.070312 27.609375 -33.0625 C 29.109375 -29.0625 31.726562 -25.675781 35.46875 -22.90625 C 39.21875 -20.132812 43.828125 -18.75 49.296875 -18.75 C 57.148438 -18.75 63.078125 -21.441406 67.078125 -26.828125 C 71.085938 -32.222656 73.09375 -38.738281 73.09375 -46.375 C 73.09375 -53.9375 71.050781 -60.429688 66.96875 -65.859375 C 62.894531 -71.285156 57.003906 -74 49.296875 -74 C 41.660156 -74 35.765625 -71.285156 31.609375 -65.859375 C 27.453125 -60.429688 25.375 -53.9375 25.375 -46.375 Z M 25.375 -46.375 "/></g></g><g style="fill:#000000;fill-opacity:1;"><g transform="translate(663.673368, 361.757942)"><path style="stroke:none" d="M 27.84375 -57.484375 L 27.84375 0 L 6.734375 0 L 6.734375 -92.625 L 27.84375 -92.625 L 64.671875 -35.140625 L 64.90625 -35.140625 L 64.90625 -92.625 L 86 -92.625 L 86 0 L 64.90625 0 L 28.078125 -57.484375 Z M 27.84375 -57.484375 "/></g></g><g style="fill:#000000;fill-opacity:1;"><g transform="translate(666.731037, 475.402163)"><path style="stroke:none" d="M 4.328125 0 L 4.328125 -97.90625 L 43.546875 -97.90625 L 43.546875 -78.984375 L 24.28125 -78.984375 L 24.28125 -59.953125 L 42.75 -59.953125 L 42.75 -41.484375 L 24.28125 -41.484375 L 24.28125 -19.03125 L 44.796875 -19.03125 L 44.796875 0 Z M 4.328125 0 "/></g></g><g style="fill:#000000;fill-opacity:1;"><g transform="translate(713.689528, 475.402163)"><path style="stroke:none" d="M 4.328125 0 L 4.328125 -97.90625 L 23.9375 -97.90625 L 23.9375 -16.640625 L 44.109375 -16.640625 L 44.109375 0 Z M 4.328125 0 "/></g></g><g style="fill:#000000;fill-opacity:1;"><g transform="translate(495.876245, 468.204092)"><path style="stroke:none" d="M 6.375 -87.546875 L 31.734375 -87.546875 C 43.898438 -87.546875 54.296875 -83.390625 62.921875 -75.078125 C 71.554688 -66.765625 75.875 -56.347656 75.875 -43.828125 C 75.875 -31.234375 71.578125 -20.78125 62.984375 -12.46875 C 54.390625 -4.15625 43.972656 0 31.734375 0 L 6.375 0 Z M 26.3125 -17.828125 L 29.390625 -17.828125 C 36.679688 -17.828125 42.644531 -20.285156 47.28125 -25.203125 C 51.914062 -30.117188 54.269531 -36.289062 54.34375 -43.71875 C 54.34375 -51.144531 52.023438 -57.332031 47.390625 -62.28125 C 42.753906 -67.238281 36.753906 -69.71875 29.390625 -69.71875 L 26.3125 -69.71875 Z M 26.3125 -17.828125 "/></g></g><g style="fill:#000000;fill-opacity:1;"><g transform="translate(574.193348, 468.204092)"><path style="stroke:none" d="M 56.453125 -87.546875 L 56.453125 -70.046875 L 26.3125 -70.046875 L 26.3125 -52.640625 L 55.1875 -52.640625 L 55.1875 -35.125 L 26.3125 -35.125 L 26.3125 -17.515625 L 56.453125 -17.515625 L 56.453125 0 L 6.375 0 L 6.375 -87.546875 Z M 56.453125 -87.546875 "/></g></g><g style="fill:#000000;fill-opacity:1;"><g transform="translate(580.488646, 615.301971)"><path style="stroke:none" d="M 17.59375 -23.0625 L 9.875 0 L 6.59375 0 L -1.046875 -23.0625 L 1.515625 -23.0625 L 8.25 -2.453125 L 14.953125 -23.0625 Z M 17.59375 -23.0625 "/></g></g><g style="fill:#000000;fill-opacity:1;"><g transform="translate(600.250434, 615.301971)"><path style="stroke:none" d="M 17.09375 -11.515625 C 17.09375 -9.960938 16.929688 -8.46875 16.609375 -7.03125 C 16.296875 -5.59375 15.789062 -4.328125 15.09375 -3.234375 C 14.394531 -2.140625 13.484375 -1.257812 12.359375 -0.59375 C 11.234375 0.0703125 9.863281 0.40625 8.25 0.40625 C 6.632812 0.40625 5.265625 0.0703125 4.140625 -0.59375 C 3.015625 -1.257812 2.101562 -2.140625 1.40625 -3.234375 C 0.707031 -4.328125 0.203125 -5.59375 -0.109375 -7.03125 C -0.421875 -8.46875 -0.578125 -9.960938 -0.578125 -11.515625 C -0.578125 -13.054688 -0.421875 -14.546875 -0.109375 -15.984375 C 0.203125 -17.421875 0.710938 -18.691406 1.421875 -19.796875 C 2.140625 -20.898438 3.0625 -21.785156 4.1875 -22.453125 C 5.3125 -23.117188 6.664062 -23.453125 8.25 -23.453125 C 9.84375 -23.453125 11.203125 -23.117188 12.328125 -22.453125 C 13.453125 -21.785156 14.363281 -20.898438 15.0625 -19.796875 C 15.757812 -18.691406 16.269531 -17.421875 16.59375 -15.984375 C 16.925781 -14.546875 17.09375 -13.054688 17.09375 -11.515625 Z M 14.65625 -11.515625 C 14.65625 -13.023438 14.507812 -14.390625 14.21875 -15.609375 C 13.925781 -16.835938 13.507812 -17.878906 12.96875 -18.734375 C 12.425781 -19.597656 11.757812 -20.253906 10.96875 -20.703125 C 10.175781 -21.160156 9.269531 -21.390625 8.25 -21.390625 C 6.988281 -21.390625 5.945312 -21.09375 5.125 -20.5 C 4.3125 -19.914062 3.65625 -19.144531 3.15625 -18.1875 C 2.664062 -17.238281 2.320312 -16.179688 2.125 -15.015625 C 1.9375 -13.847656 1.84375 -12.679688 1.84375 -11.515625 C 1.84375 -10.359375 1.9375 -9.191406 2.125 -8.015625 C 2.320312 -6.835938 2.664062 -5.78125 3.15625 -4.84375 C 3.65625 -3.914062 4.3125 -3.148438 5.125 -2.546875 C 5.945312 -1.953125 6.988281 -1.65625 8.25 -1.65625 C 9.5 -1.65625 10.535156 -1.953125 11.359375 -2.546875 C 12.191406 -3.148438 12.851562 -3.914062 13.34375 -4.84375 C 13.84375 -5.78125 14.1875 -6.835938 14.375 -8.015625 C 14.5625 -9.191406 14.65625 -10.359375 14.65625 -11.515625 Z M 14.65625 -11.515625 "/></g></g><g style="fill:#000000;fill-opacity:1;"><g transform="translate(620.012221, 615.301971)"><path style="stroke:none" d="M 16.609375 -6.046875 C 16.015625 -4.066406 15.03125 -2.492188 13.65625 -1.328125 C 12.289062 -0.171875 10.570312 0.40625 8.5 0.40625 C 6.882812 0.40625 5.515625 0.0703125 4.390625 -0.59375 C 3.273438 -1.257812 2.359375 -2.140625 1.640625 -3.234375 C 0.929688 -4.328125 0.421875 -5.59375 0.109375 -7.03125 C -0.203125 -8.46875 -0.359375 -9.960938 -0.359375 -11.515625 C -0.359375 -13.054688 -0.203125 -14.546875 0.109375 -15.984375 C 0.421875 -17.421875 0.929688 -18.691406 1.640625 -19.796875 C 2.359375 -20.898438 3.273438 -21.785156 4.390625 -22.453125 C 5.515625 -23.117188 6.882812 -23.453125 8.5 -23.453125 C 9.925781 -23.453125 11.144531 -23.195312 12.15625 -22.6875 C 13.175781 -22.1875 13.925781 -21.414062 14.40625 -20.375 L 14.40625 -23.0625 L 16.46875 -23.0625 L 16.46875 -15.5 L 14.40625 -15.5 C 14.40625 -16.3125 14.25 -17.078125 13.9375 -17.796875 C 13.625 -18.523438 13.203125 -19.15625 12.671875 -19.6875 C 12.140625 -20.21875 11.507812 -20.632812 10.78125 -20.9375 C 10.0625 -21.238281 9.300781 -21.390625 8.5 -21.390625 C 7.25 -21.390625 6.210938 -21.09375 5.390625 -20.5 C 4.578125 -19.914062 3.921875 -19.144531 3.421875 -18.1875 C 2.929688 -17.238281 2.582031 -16.179688 2.375 -15.015625 C 2.164062 -13.847656 2.0625 -12.679688 2.0625 -11.515625 C 2.0625 -10.359375 2.164062 -9.191406 2.375 -8.015625 C 2.582031 -6.835938 2.929688 -5.78125 3.421875 -4.84375 C 3.921875 -3.914062 4.578125 -3.148438 5.390625 -2.546875 C 6.210938 -1.953125 7.25 -1.65625 8.5 -1.65625 C 11.375 -1.65625 13.378906 -3.394531 14.515625 -6.875 Z M 16.609375 -6.046875 "/></g></g><g style="fill:#000000;fill-opacity:1;"><g transform="translate(639.774009, 615.301971)"><path style="stroke:none" d="M 15.609375 0 L 0.859375 0 L 0.859375 -23.0625 L 15.609375 -23.0625 L 15.609375 -21 L 3.28125 -21 L 3.28125 -12.75 L 12.375 -12.75 L 12.375 -10.671875 L 3.28125 -10.671875 L 3.28125 -2.0625 L 15.609375 -2.0625 Z M 15.609375 0 "/></g></g><g style="fill:#000000;fill-opacity:1;"><g transform="translate(659.535797, 615.301971)"><path style="stroke:none" d="M 15.890625 -6.015625 C 15.890625 -5.046875 15.6875 -4.164062 15.28125 -3.375 C 14.882812 -2.59375 14.347656 -1.921875 13.671875 -1.359375 C 13.003906 -0.796875 12.234375 -0.359375 11.359375 -0.046875 C 10.492188 0.253906 9.585938 0.40625 8.640625 0.40625 C 7.347656 0.40625 6.160156 0.164062 5.078125 -0.3125 C 3.992188 -0.800781 3.132812 -1.515625 2.5 -2.453125 L 2.5 0 L 0.4375 0 L 0.4375 -7.015625 L 2.5 -7.015625 C 2.5 -6.222656 2.679688 -5.5 3.046875 -4.84375 C 3.410156 -4.195312 3.875 -3.632812 4.4375 -3.15625 C 5 -2.6875 5.648438 -2.316406 6.390625 -2.046875 C 7.128906 -1.785156 7.878906 -1.65625 8.640625 -1.65625 C 9.328125 -1.65625 9.957031 -1.753906 10.53125 -1.953125 C 11.113281 -2.148438 11.617188 -2.425781 12.046875 -2.78125 C 12.484375 -3.144531 12.828125 -3.582031 13.078125 -4.09375 C 13.335938 -4.613281 13.46875 -5.207031 13.46875 -5.875 C 13.46875 -6.613281 13.304688 -7.25 12.984375 -7.78125 C 12.660156 -8.3125 12.222656 -8.765625 11.671875 -9.140625 C 11.128906 -9.515625 10.515625 -9.832031 9.828125 -10.09375 C 9.140625 -10.363281 8.445312 -10.628906 7.75 -10.890625 C 6.90625 -11.179688 6.066406 -11.488281 5.234375 -11.8125 C 4.398438 -12.132812 3.648438 -12.539062 2.984375 -13.03125 C 2.328125 -13.53125 1.789062 -14.132812 1.375 -14.84375 C 0.96875 -15.5625 0.765625 -16.453125 0.765625 -17.515625 C 0.765625 -18.460938 0.960938 -19.300781 1.359375 -20.03125 C 1.765625 -20.769531 2.289062 -21.390625 2.9375 -21.890625 C 3.582031 -22.398438 4.332031 -22.785156 5.1875 -23.046875 C 6.050781 -23.316406 6.9375 -23.453125 7.84375 -23.453125 C 8.96875 -23.453125 10.003906 -23.222656 10.953125 -22.765625 C 11.898438 -22.304688 12.640625 -21.609375 13.171875 -20.671875 L 13.171875 -23.0625 L 15.3125 -23.0625 L 15.3125 -16.46875 L 13.171875 -16.46875 C 13.171875 -17.164062 13.023438 -17.816406 12.734375 -18.421875 C 12.441406 -19.035156 12.046875 -19.554688 11.546875 -19.984375 C 11.054688 -20.410156 10.492188 -20.75 9.859375 -21 C 9.222656 -21.257812 8.550781 -21.390625 7.84375 -21.390625 C 7.21875 -21.390625 6.625 -21.316406 6.0625 -21.171875 C 5.5 -21.035156 5.003906 -20.8125 4.578125 -20.5 C 4.148438 -20.1875 3.8125 -19.78125 3.5625 -19.28125 C 3.3125 -18.789062 3.1875 -18.203125 3.1875 -17.515625 C 3.1875 -16.910156 3.332031 -16.394531 3.625 -15.96875 C 3.925781 -15.550781 4.332031 -15.179688 4.84375 -14.859375 C 5.351562 -14.535156 5.9375 -14.238281 6.59375 -13.96875 C 7.257812 -13.707031 7.941406 -13.441406 8.640625 -13.171875 C 9.515625 -12.859375 10.378906 -12.515625 11.234375 -12.140625 C 12.097656 -11.765625 12.867188 -11.3125 13.546875 -10.78125 C 14.234375 -10.25 14.796875 -9.597656 15.234375 -8.828125 C 15.671875 -8.054688 15.890625 -7.117188 15.890625 -6.015625 Z M 15.890625 -6.015625 "/></g></g><g style="fill:#000000;fill-opacity:1;"><g transform="translate(679.297584, 615.301971)"><path style="stroke:none" d=""/></g></g><g style="fill:#000000;fill-opacity:1;"><g transform="translate(699.059372, 615.301971)"><path style="stroke:none" d="M 15.609375 0 L 0.859375 0 L 0.859375 -23.0625 L 15.609375 -23.0625 L 15.609375 -21 L 3.28125 -21 L 3.28125 -12.75 L 12.375 -12.75 L 12.375 -10.671875 L 3.28125 -10.671875 L 3.28125 -2.0625 L 15.609375 -2.0625 Z M 15.609375 0 "/></g></g><g style="fill:#000000;fill-opacity:1;"><g transform="translate(718.821159, 615.301971)"><path style="stroke:none" d=""/></g></g><g style="fill:#000000;fill-opacity:1;"><g transform="translate(738.582947, 615.301971)"><path style="stroke:none" d="M 13.171875 0 L 3.28125 0 L 3.28125 -2.0625 L 7.015625 -2.0625 L 7.015625 -21 L 3.28125 -21 L 3.28125 -23.0625 L 13.171875 -23.0625 L 13.171875 -21 L 9.453125 -21 L 9.453125 -2.0625 L 13.171875 -2.0625 Z M 13.171875 0 "/></g></g><g style="fill:#000000;fill-opacity:1;"><g transform="translate(758.344734, 615.301971)"><path style="stroke:none" d="M 15.609375 0 L 13.171875 0 L 13.171875 -19.21875 L 9.09375 -7.3125 L 7.359375 -7.3125 L 3.28125 -19.21875 L 3.28125 0 L 0.859375 0 L 0.859375 -23.0625 L 4.015625 -23.0625 L 8.21875 -11.015625 L 12.46875 -23.0625 L 15.609375 -23.0625 Z M 15.609375 0 "/></g></g><g style="fill:#000000;fill-opacity:1;"><g transform="translate(778.106522, 615.301971)"><path style="stroke:none" d="M 17.59375 0 L 14.984375 0 L 12.8125 -6.59375 L 3.6875 -6.59375 L 1.5625 0 L -1.046875 0 L 6.625 -23.0625 L 9.921875 -23.0625 Z M 12.125 -8.734375 L 8.25 -20.625 L 4.390625 -8.734375 Z M 12.5625 -28.75 L 4.9375 -24.453125 L 4.28125 -25.59375 L 11.40625 -30.671875 Z M 12.5625 -28.75 "/></g></g><g style="fill:#000000;fill-opacity:1;"><g transform="translate(797.868299, 615.301971)"><path style="stroke:none" d="M 17.375 -11.46875 C 17.375 -9.90625 17.210938 -8.410156 16.890625 -6.984375 C 16.566406 -5.554688 16.046875 -4.296875 15.328125 -3.203125 C 14.617188 -2.109375 13.703125 -1.234375 12.578125 -0.578125 C 11.453125 0.078125 10.09375 0.40625 8.5 0.40625 C 6.882812 0.40625 5.515625 0.0703125 4.390625 -0.59375 C 3.273438 -1.257812 2.359375 -2.140625 1.640625 -3.234375 C 0.929688 -4.328125 0.421875 -5.59375 0.109375 -7.03125 C -0.203125 -8.46875 -0.359375 -9.960938 -0.359375 -11.515625 C -0.359375 -13.054688 -0.203125 -14.546875 0.109375 -15.984375 C 0.421875 -17.421875 0.929688 -18.691406 1.640625 -19.796875 C 2.359375 -20.898438 3.273438 -21.785156 4.390625 -22.453125 C 5.515625 -23.117188 6.882812 -23.453125 8.5 -23.453125 C 9.925781 -23.453125 11.144531 -23.195312 12.15625 -22.6875 C 13.175781 -22.1875 13.925781 -21.414062 14.40625 -20.375 L 14.40625 -23.0625 L 16.46875 -23.0625 L 16.46875 -15.5 L 14.40625 -15.5 C 14.40625 -16.34375 14.25 -17.125 13.9375 -17.84375 C 13.625 -18.570312 13.203125 -19.191406 12.671875 -19.703125 C 12.140625 -20.222656 11.507812 -20.632812 10.78125 -20.9375 C 10.0625 -21.238281 9.300781 -21.390625 8.5 -21.390625 C 7.25 -21.390625 6.210938 -21.09375 5.390625 -20.5 C 4.578125 -19.914062 3.921875 -19.144531 3.421875 -18.1875 C 2.929688 -17.238281 2.582031 -16.179688 2.375 -15.015625 C 2.164062 -13.847656 2.0625 -12.679688 2.0625 -11.515625 C 2.0625 -10.359375 2.164062 -9.191406 2.375 -8.015625 C 2.582031 -6.835938 2.929688 -5.78125 3.421875 -4.84375 C 3.921875 -3.914062 4.578125 -3.148438 5.390625 -2.546875 C 6.210938 -1.953125 7.25 -1.65625 8.5 -1.65625 C 10.363281 -1.65625 11.832031 -2.375 12.90625 -3.8125 C 13.976562 -5.25 14.613281 -7.269531 14.8125 -9.875 L 9.703125 -9.875 L 9.703125 -11.953125 L 17.375 -11.953125 Z M 17.375 -11.46875 "/></g></g><g style="fill:#000000;fill-opacity:1;"><g transform="translate(817.630098, 615.301971)"><path style="stroke:none" d="M 15.609375 0 L 0.859375 0 L 0.859375 -23.0625 L 15.609375 -23.0625 L 15.609375 -21 L 3.28125 -21 L 3.28125 -12.75 L 12.375 -12.75 L 12.375 -10.671875 L 3.28125 -10.671875 L 3.28125 -2.0625 L 15.609375 -2.0625 Z M 15.609375 0 "/></g></g><g style="fill:#000000;fill-opacity:1;"><g transform="translate(837.391897, 615.301971)"><path style="stroke:none" d="M 15.609375 0 L 12.609375 0 L 3.28125 -19.515625 L 3.28125 0 L 0.859375 0 L 0.859375 -23.0625 L 4.28125 -23.0625 L 13.171875 -4.453125 L 13.171875 -23.0625 L 15.609375 -23.0625 Z M 15.609375 0 "/></g></g><g style="fill:#000000;fill-opacity:1;"><g transform="translate(857.153673, 615.301971)"><path style="stroke:none" d="M 15.609375 0 L 0.859375 0 L 0.859375 -23.0625 L 15.609375 -23.0625 L 15.609375 -21 L 3.28125 -21 L 3.28125 -12.75 L 12.375 -12.75 L 12.375 -10.671875 L 3.28125 -10.671875 L 3.28125 -2.0625 L 15.609375 -2.0625 Z M 15.609375 0 "/></g></g><g style="fill:#000000;fill-opacity:1;"><g transform="translate(876.91545, 615.301971)"><path style="stroke:none" d="M 15.890625 -6.015625 C 15.890625 -5.046875 15.6875 -4.164062 15.28125 -3.375 C 14.882812 -2.59375 14.347656 -1.921875 13.671875 -1.359375 C 13.003906 -0.796875 12.234375 -0.359375 11.359375 -0.046875 C 10.492188 0.253906 9.585938 0.40625 8.640625 0.40625 C 7.347656 0.40625 6.160156 0.164062 5.078125 -0.3125 C 3.992188 -0.800781 3.132812 -1.515625 2.5 -2.453125 L 2.5 0 L 0.4375 0 L 0.4375 -7.015625 L 2.5 -7.015625 C 2.5 -6.222656 2.679688 -5.5 3.046875 -4.84375 C 3.410156 -4.195312 3.875 -3.632812 4.4375 -3.15625 C 5 -2.6875 5.648438 -2.316406 6.390625 -2.046875 C 7.128906 -1.785156 7.878906 -1.65625 8.640625 -1.65625 C 9.328125 -1.65625 9.957031 -1.753906 10.53125 -1.953125 C 11.113281 -2.148438 11.617188 -2.425781 12.046875 -2.78125 C 12.484375 -3.144531 12.828125 -3.582031 13.078125 -4.09375 C 13.335938 -4.613281 13.46875 -5.207031 13.46875 -5.875 C 13.46875 -6.613281 13.304688 -7.25 12.984375 -7.78125 C 12.660156 -8.3125 12.222656 -8.765625 11.671875 -9.140625 C 11.128906 -9.515625 10.515625 -9.832031 9.828125 -10.09375 C 9.140625 -10.363281 8.445312 -10.628906 7.75 -10.890625 C 6.90625 -11.179688 6.066406 -11.488281 5.234375 -11.8125 C 4.398438 -12.132812 3.648438 -12.539062 2.984375 -13.03125 C 2.328125 -13.53125 1.789062 -14.132812 1.375 -14.84375 C 0.96875 -15.5625 0.765625 -16.453125 0.765625 -17.515625 C 0.765625 -18.460938 0.960938 -19.300781 1.359375 -20.03125 C 1.765625 -20.769531 2.289062 -21.390625 2.9375 -21.890625 C 3.582031 -22.398438 4.332031 -22.785156 5.1875 -23.046875 C 6.050781 -23.316406 6.9375 -23.453125 7.84375 -23.453125 C 8.96875 -23.453125 10.003906 -23.222656 10.953125 -22.765625 C 11.898438 -22.304688 12.640625 -21.609375 13.171875 -20.671875 L 13.171875 -23.0625 L 15.3125 -23.0625 L 15.3125 -16.46875 L 13.171875 -16.46875 C 13.171875 -17.164062 13.023438 -17.816406 12.734375 -18.421875 C 12.441406 -19.035156 12.046875 -19.554688 11.546875 -19.984375 C 11.054688 -20.410156 10.492188 -20.75 9.859375 -21 C 9.222656 -21.257812 8.550781 -21.390625 7.84375 -21.390625 C 7.21875 -21.390625 6.625 -21.316406 6.0625 -21.171875 C 5.5 -21.035156 5.003906 -20.8125 4.578125 -20.5 C 4.148438 -20.1875 3.8125 -19.78125 3.5625 -19.28125 C 3.3125 -18.789062 3.1875 -18.203125 3.1875 -17.515625 C 3.1875 -16.910156 3.332031 -16.394531 3.625 -15.96875 C 3.925781 -15.550781 4.332031 -15.179688 4.84375 -14.859375 C 5.351562 -14.535156 5.9375 -14.238281 6.59375 -13.96875 C 7.257812 -13.707031 7.941406 -13.441406 8.640625 -13.171875 C 9.515625 -12.859375 10.378906 -12.515625 11.234375 -12.140625 C 12.097656 -11.765625 12.867188 -11.3125 13.546875 -10.78125 C 14.234375 -10.25 14.796875 -9.597656 15.234375 -8.828125 C 15.671875 -8.054688 15.890625 -7.117188 15.890625 -6.015625 Z M 15.890625 -6.015625 "/></g></g><g style="fill:#000000;fill-opacity:1;"><g transform="translate(896.677249, 615.301971)"><path style="stroke:none" d=""/></g></g><g style="fill:#000000;fill-opacity:1;"><g transform="translate(916.439048, 615.301971)"><path style="stroke:none" d="M 17.234375 -11.515625 C 17.234375 -9.960938 17.070312 -8.488281 16.75 -7.09375 C 16.425781 -5.695312 15.90625 -4.472656 15.1875 -3.421875 C 14.476562 -2.367188 13.5625 -1.535156 12.4375 -0.921875 C 11.3125 -0.304688 9.953125 0 8.359375 0 L 0.859375 0 L 0.859375 -23.0625 L 8.359375 -23.0625 C 9.929688 -23.0625 11.28125 -22.742188 12.40625 -22.109375 C 13.53125 -21.484375 14.445312 -20.640625 15.15625 -19.578125 C 15.875 -18.523438 16.398438 -17.300781 16.734375 -15.90625 C 17.066406 -14.519531 17.234375 -13.054688 17.234375 -11.515625 Z M 14.8125 -11.515625 C 14.8125 -14.523438 14.242188 -16.859375 13.109375 -18.515625 C 11.972656 -20.171875 10.390625 -21 8.359375 -21 L 3.28125 -21 L 3.28125 -2.0625 L 8.359375 -2.0625 C 10.390625 -2.0625 11.972656 -2.878906 13.109375 -4.515625 C 14.242188 -6.160156 14.8125 -8.492188 14.8125 -11.515625 Z M 14.8125 -11.515625 "/></g></g><g style="fill:#000000;fill-opacity:1;"><g transform="translate(936.200825, 615.301971)"><path style="stroke:none" d="M 15.609375 0 L 0.859375 0 L 0.859375 -23.0625 L 15.609375 -23.0625 L 15.609375 -21 L 3.28125 -21 L 3.28125 -12.75 L 12.375 -12.75 L 12.375 -10.671875 L 3.28125 -10.671875 L 3.28125 -2.0625 L 15.609375 -2.0625 Z M 15.609375 0 "/></g></g><g style="fill:#000000;fill-opacity:1;"><g transform="translate(955.962602, 615.301971)"><path style="stroke:none" d=""/></g></g><g style="fill:#000000;fill-opacity:1;"><g transform="translate(975.724401, 615.301971)"><path style="stroke:none" d="M 15.609375 0 L 0.859375 0 L 0.859375 -23.0625 L 3.28125 -23.0625 L 3.28125 -2.0625 L 15.609375 -2.0625 Z M 15.609375 0 "/></g></g><g style="fill:#000000;fill-opacity:1;"><g transform="translate(995.4862, 615.301971)"><path style="stroke:none" d="M 17.59375 0 L 14.984375 0 L 12.8125 -6.59375 L 3.6875 -6.59375 L 1.5625 0 L -1.046875 0 L 6.625 -23.0625 L 9.921875 -23.0625 Z M 12.125 -8.734375 L 8.25 -20.625 L 4.390625 -8.734375 Z M 12.125 -8.734375 "/></g></g><g style="fill:#000000;fill-opacity:1;"><g transform="translate(1015.247955, 615.301971)"><path style="stroke:none" d=""/></g></g><g style="fill:#000000;fill-opacity:1;"><g transform="translate(1035.009754, 615.301971)"><path style="stroke:none" d="M 17.09375 -11.515625 C 17.09375 -9.960938 16.929688 -8.46875 16.609375 -7.03125 C 16.296875 -5.59375 15.789062 -4.328125 15.09375 -3.234375 C 14.394531 -2.140625 13.484375 -1.257812 12.359375 -0.59375 C 11.234375 0.0703125 9.863281 0.40625 8.25 0.40625 C 6.632812 0.40625 5.265625 0.0703125 4.140625 -0.59375 C 3.015625 -1.257812 2.101562 -2.140625 1.40625 -3.234375 C 0.707031 -4.328125 0.203125 -5.59375 -0.109375 -7.03125 C -0.421875 -8.46875 -0.578125 -9.960938 -0.578125 -11.515625 C -0.578125 -13.054688 -0.421875 -14.546875 -0.109375 -15.984375 C 0.203125 -17.421875 0.710938 -18.691406 1.421875 -19.796875 C 2.140625 -20.898438 3.0625 -21.785156 4.1875 -22.453125 C 5.3125 -23.117188 6.664062 -23.453125 8.25 -23.453125 C 9.84375 -23.453125 11.203125 -23.117188 12.328125 -22.453125 C 13.453125 -21.785156 14.363281 -20.898438 15.0625 -19.796875 C 15.757812 -18.691406 16.269531 -17.421875 16.59375 -15.984375 C 16.925781 -14.546875 17.09375 -13.054688 17.09375 -11.515625 Z M 14.65625 -11.515625 C 14.65625 -13.023438 14.507812 -14.390625 14.21875 -15.609375 C 13.925781 -16.835938 13.507812 -17.878906 12.96875 -18.734375 C 12.425781 -19.597656 11.757812 -20.253906 10.96875 -20.703125 C 10.175781 -21.160156 9.269531 -21.390625 8.25 -21.390625 C 6.988281 -21.390625 5.945312 -21.09375 5.125 -20.5 C 4.3125 -19.914062 3.65625 -19.144531 3.15625 -18.1875 C 2.664062 -17.238281 2.320312 -16.179688 2.125 -15.015625 C 1.9375 -13.847656 1.84375 -12.679688 1.84375 -11.515625 C 1.84375 -10.359375 1.9375 -9.191406 2.125 -8.015625 C 2.320312 -6.835938 2.664062 -5.78125 3.15625 -4.84375 C 3.65625 -3.914062 4.3125 -3.148438 5.125 -2.546875 C 5.945312 -1.953125 6.988281 -1.65625 8.25 -1.65625 C 9.5 -1.65625 10.535156 -1.953125 11.359375 -2.546875 C 12.191406 -3.148438 12.851562 -3.914062 13.34375 -4.84375 C 13.84375 -5.78125 14.1875 -6.835938 14.375 -8.015625 C 14.5625 -9.191406 14.65625 -10.359375 14.65625 -11.515625 Z M 14.65625 -11.515625 "/></g></g><g style="fill:#000000;fill-opacity:1;"><g transform="translate(1054.771553, 615.301971)"><path style="stroke:none" d="M 16.46875 -15.265625 L 14.40625 -15.265625 L 14.40625 -21 L 9.453125 -21 L 9.453125 -2.0625 L 13.171875 -2.0625 L 13.171875 0 L 3.28125 0 L 3.28125 -2.0625 L 7.015625 -2.0625 L 7.015625 -21 L 2.0625 -21 L 2.0625 -15.265625 L 0 -15.265625 L 0 -23.0625 L 16.46875 -23.0625 Z M 16.46875 -15.265625 "/></g></g><g style="fill:#000000;fill-opacity:1;"><g transform="translate(1074.533352, 615.301971)"><path style="stroke:none" d="M 16.6875 0 L 13.609375 0 L 6.875 -9.875 L 3.28125 -9.875 L 3.28125 0 L 0.859375 0 L 0.859375 -23.0625 L 8.46875 -23.0625 C 11 -23.0625 12.957031 -22.507812 14.34375 -21.40625 C 15.738281 -20.3125 16.4375 -18.664062 16.4375 -16.46875 C 16.4375 -15.507812 16.265625 -14.640625 15.921875 -13.859375 C 15.585938 -13.085938 15.125 -12.429688 14.53125 -11.890625 C 13.9375 -11.347656 13.226562 -10.910156 12.40625 -10.578125 C 11.59375 -10.253906 10.703125 -10.054688 9.734375 -9.984375 Z M 13.9375 -16.46875 C 13.9375 -18.039062 13.445312 -19.1875 12.46875 -19.90625 C 11.5 -20.632812 10.164062 -21 8.46875 -21 L 3.28125 -21 L 3.28125 -11.953125 L 8.46875 -11.953125 C 10.164062 -11.953125 11.5 -12.304688 12.46875 -13.015625 C 13.445312 -13.734375 13.9375 -14.882812 13.9375 -16.46875 Z M 13.9375 -16.46875 "/></g></g><g style="fill:#000000;fill-opacity:1;"><g transform="translate(1094.295151, 615.301971)"><path style="stroke:none" d="M 17.59375 0 L 14.984375 0 L 12.8125 -6.59375 L 3.6875 -6.59375 L 1.5625 0 L -1.046875 0 L 6.625 -23.0625 L 9.921875 -23.0625 Z M 12.125 -8.734375 L 8.25 -20.625 L 4.390625 -8.734375 Z M 12.125 -8.734375 "/></g></g><g style="fill:#000000;fill-opacity:1;"><g transform="translate(1114.056906, 615.301971)"><path style="stroke:none" d=""/></g></g><g style="fill:#000000;fill-opacity:1;"><g transform="translate(1133.818705, 615.301971)"><path style="stroke:none" d="M 15.609375 0 L 0.859375 0 L 0.859375 -23.0625 L 3.28125 -23.0625 L 3.28125 -2.0625 L 15.609375 -2.0625 Z M 15.609375 0 "/></g></g><g style="fill:#000000;fill-opacity:1;"><g transform="translate(1153.580504, 615.301971)"><path style="stroke:none" d="M 13.171875 0 L 3.28125 0 L 3.28125 -2.0625 L 7.015625 -2.0625 L 7.015625 -21 L 3.28125 -21 L 3.28125 -23.0625 L 13.171875 -23.0625 L 13.171875 -21 L 9.453125 -21 L 9.453125 -2.0625 L 13.171875 -2.0625 Z M 13.171875 0 "/></g></g><g style="fill:#000000;fill-opacity:1;"><g transform="translate(1173.34226, 615.301971)"><path style="stroke:none" d="M 15.609375 0 L 13.171875 0 L 13.171875 -19.21875 L 9.09375 -7.3125 L 7.359375 -7.3125 L 3.28125 -19.21875 L 3.28125 0 L 0.859375 0 L 0.859375 -23.0625 L 4.015625 -23.0625 L 8.21875 -11.015625 L 12.46875 -23.0625 L 15.609375 -23.0625 Z M 15.609375 0 "/></g></g><g style="fill:#000000;fill-opacity:1;"><g transform="translate(1193.104059, 615.301971)"><path style="stroke:none" d="M 17.59375 0 L 14.984375 0 L 12.8125 -6.59375 L 3.6875 -6.59375 L 1.5625 0 L -1.046875 0 L 6.625 -23.0625 L 9.921875 -23.0625 Z M 12.125 -8.734375 L 8.25 -20.625 L 4.390625 -8.734375 Z M 12.125 -8.734375 "/></g></g></g></svg>